<?xml version="1.0" standalone="no"?>
<!DOCTYPE svg PUBLIC "-//W3C//DTD SVG 20010904//EN"
 "http://www.w3.org/TR/2001/REC-SVG-20010904/DTD/svg10.dtd">
<svg version="1.0" xmlns="http://www.w3.org/2000/svg"
 width="700.000000pt" height="700.000000pt" viewBox="0 0 700.000000 700.000000"
 preserveAspectRatio="xMidYMid meet">
<metadata>
Created by potrace 1.14, written by Peter Selinger 2001-2017
</metadata>
<g transform="translate(0.000000,700.000000) scale(0.100000,-0.100000)"
fill="#000000" stroke="none">
<path d="M2830 6940 c-1 -14 -3 -36 -6 -49 -2 -13 0 -38 5 -57 7 -25 6 -32 -4
-28 -18 7 -29 -14 -15 -31 12 -15 16 -249 5 -301 -13 -56 -27 -83 -41 -77 -16
6 -22 -6 -28 -63 -2 -22 -8 -58 -12 -79 l-7 -37 -28 33 c-16 19 -29 42 -29 52
0 9 -4 17 -8 17 -5 0 -19 23 -32 50 -13 28 -30 56 -37 62 -7 6 -13 19 -13 29
0 11 -6 19 -14 19 -9 0 -12 7 -9 20 3 11 1 20 -4 20 -11 0 -10 -26 2 -79 5
-25 3 -31 -10 -31 -8 0 -19 -8 -22 -17 -5 -13 -9 -9 -18 18 -8 21 -18 33 -27
31 -8 -1 -23 13 -34 33 -10 19 -23 35 -29 36 -5 0 -28 36 -49 80 -25 51 -42
76 -47 68 -13 -22 6 -89 26 -89 22 0 23 -23 3 -51 -14 -18 -17 -31 -10 -48 5
-13 5 -44 2 -68 -4 -25 -6 -60 -4 -79 3 -37 -11 -46 -21 -13 -6 18 -19 19 -20
1 -3 -37 -18 -103 -24 -107 -5 -2 -19 4 -32 14 -13 10 -29 16 -35 14 -11 -4
-30 34 -36 71 -2 11 -9 21 -17 24 -9 3 -11 0 -6 -8 9 -15 -9 -6 -37 18 -16 13
-17 11 -11 -23 6 -35 5 -37 -15 -26 -11 6 -24 20 -27 31 -10 33 -27 23 -21
-13 4 -25 1 -35 -14 -45 -17 -10 -20 -10 -20 3 0 22 -15 18 -27 -7 -8 -17 -5
-47 13 -118 28 -116 37 -184 29 -210 -5 -16 -15 -20 -46 -20 -38 0 -39 -1 -28
-22 12 -22 12 -22 -12 -7 -30 20 -139 168 -139 190 0 23 -76 90 -94 83 -8 -3
-17 -1 -21 5 -9 16 -25 13 -25 -5 0 -8 4 -13 9 -10 5 3 14 -1 21 -9 10 -12 10
-15 0 -15 -8 0 -10 -8 -5 -27 4 -16 9 -50 11 -78 l4 -50 -33 60 c-17 33 -39
60 -47 60 -8 0 -14 -6 -12 -14 2 -7 5 -41 8 -75 4 -51 24 -156 39 -203 2 -7
-2 -10 -11 -6 -13 5 -15 -2 -9 -43 3 -27 8 -59 11 -71 2 -12 -1 -25 -6 -28
-10 -6 -20 -2 -120 53 -68 37 -140 52 -140 28 0 -9 -4 -16 -10 -16 -5 0 -10 8
-10 19 0 14 -6 17 -25 13 -16 -3 -27 1 -31 11 -4 12 -14 15 -35 10 -18 -3 -29
-1 -29 6 0 6 -17 19 -38 30 -20 11 -54 36 -75 56 -20 20 -37 34 -37 30 0 -9
23 -47 58 -94 17 -24 37 -62 44 -85 6 -23 22 -53 35 -67 16 -18 21 -29 14 -34
-6 -3 -9 -10 -6 -15 3 -5 1 -11 -5 -15 -6 -4 -10 5 -10 20 0 24 -3 26 -29 20
-22 -5 -32 -2 -40 12 -6 10 -11 13 -11 7 0 -11 20 -42 95 -149 48 -68 75 -117
75 -138 0 -7 -10 -19 -23 -26 -19 -10 -32 -9 -74 8 -57 22 -150 35 -158 21 -3
-5 4 -11 15 -15 19 -6 28 -25 12 -25 -14 0 -52 40 -52 55 0 8 -6 15 -14 15 -7
0 -25 9 -40 21 -14 11 -27 18 -27 15 -1 -3 -2 -12 -3 -18 0 -7 -7 -14 -13 -14
-7 -1 -16 -2 -20 -3 -3 0 2 -11 13 -23 10 -12 13 -18 7 -14 -18 10 -16 -10 4
-42 l17 -27 -25 21 c-26 23 -59 37 -59 26 0 -4 9 -20 20 -37 11 -16 20 -39 20
-50 -1 -19 -1 -19 -14 -2 -12 16 -15 16 -27 1 -16 -19 3 -60 54 -114 54 -58
87 -106 87 -126 0 -21 -48 -55 -92 -65 -20 -5 -32 -1 -45 13 -17 19 -84 58
-100 58 -4 0 -2 -5 5 -12 19 -19 14 -26 -14 -22 -20 2 -24 -1 -18 -14 3 -9 12
-32 19 -51 7 -18 16 -36 21 -40 5 -3 11 -15 12 -26 2 -11 9 -23 14 -26 6 -4 6
-9 1 -12 -13 -8 -27 4 -40 34 -15 35 -50 44 -64 17 -9 -16 -7 -20 11 -25 18
-5 21 -12 19 -47 -2 -25 3 -54 14 -74 12 -22 15 -37 9 -45 -6 -7 -12 -25 -13
-42 -2 -16 -14 -43 -26 -58 -13 -16 -23 -32 -23 -37 0 -5 -21 -25 -47 -45 -39
-30 -53 -35 -80 -30 -18 3 -34 1 -38 -5 -4 -6 -23 4 -49 25 -73 59 -86 34 -16
-31 16 -16 30 -33 30 -38 0 -5 10 -21 23 -34 15 -17 18 -26 9 -29 -6 -3 -10
-9 -7 -13 10 -16 -33 -50 -52 -43 -15 5 -16 3 -5 -8 6 -7 12 -25 12 -40 0 -26
-5 -34 -45 -67 -20 -17 -16 -66 5 -70 9 -1 26 7 38 18 l23 21 -5 -25 c-3 -14
-8 -31 -12 -37 -4 -7 -9 -32 -10 -56 -4 -48 -20 -85 -54 -123 -36 -40 -80
-112 -80 -131 0 -9 -9 -27 -21 -40 -11 -13 -17 -17 -13 -9 7 13 5 13 -8 2 -16
-13 -46 -70 -75 -142 l-14 -35 20 25 c30 38 32 21 6 -55 -13 -39 -22 -71 -20
-73 2 -2 17 17 34 42 17 25 36 48 42 52 16 10 -39 -94 -88 -166 -43 -61 -45
-68 -40 -117 5 -51 5 -53 -18 -53 -21 0 -23 -3 -16 -22 6 -16 -5 -61 -40 -162
-26 -77 -46 -142 -44 -144 2 -2 19 14 38 35 20 21 38 35 41 32 3 -3 -7 -53
-24 -111 -17 -58 -31 -123 -33 -144 -1 -22 -7 -43 -14 -49 -12 -10 -45 -126
-38 -133 9 -9 24 10 18 23 -3 8 0 15 7 15 8 0 11 -12 8 -35 l-4 -35 23 22 c24
23 26 21 24 -27 l-1 -30 20 37 c31 57 39 53 24 -11 -24 -103 -26 -123 -26
-228 0 -82 3 -110 19 -140 11 -21 23 -67 26 -103 7 -78 14 -100 33 -100 8 0
14 -11 15 -27 1 -59 17 -205 26 -241 3 -12 12 -26 19 -30 8 -5 30 -64 49 -133
19 -68 43 -142 53 -164 11 -22 27 -64 37 -94 9 -30 23 -60 30 -67 7 -7 18 -41
24 -75 10 -60 31 -104 31 -66 0 25 17 21 23 -5 8 -30 20 -16 24 29 3 41 11 53
22 34 7 -11 10 -11 14 0 3 8 6 -1 6 -18 1 -18 6 -33 11 -33 6 0 10 -7 10 -16
0 -24 20 -6 21 19 0 21 1 21 10 -2 7 -18 6 -35 -4 -60 -15 -39 -14 -131 2
-171 10 -25 10 -25 10 -2 1 13 5 21 10 18 13 -8 6 -79 -8 -84 -6 -2 -11 -17
-11 -34 0 -22 4 -29 17 -26 9 2 20 14 23 27 8 37 30 38 30 2 0 -16 4 -32 9
-36 14 -8 25 15 23 48 -3 39 8 29 40 -35 45 -90 86 -210 93 -274 6 -53 10 -60
29 -60 13 1 20 -4 18 -13 -11 -50 -3 -96 19 -114 17 -13 23 -27 21 -48 -3 -24
0 -28 17 -24 23 4 51 -18 51 -41 0 -9 8 -12 22 -10 13 3 30 5 39 5 9 1 19 10
22 21 7 28 34 36 56 16 23 -21 34 -20 26 3 -5 16 3 20 55 32 33 7 60 18 60 25
0 20 92 116 100 105 8 -14 41 21 65 69 10 19 28 43 41 53 23 18 35 45 14 32
-35 -22 12 81 97 208 129 195 265 357 312 372 25 8 26 14 7 52 -7 15 -28 58
-45 94 -18 37 -55 102 -83 145 -90 140 -115 178 -162 252 -25 39 -66 103 -91
141 -25 39 -45 72 -45 75 0 3 -16 30 -35 60 -50 78 -161 294 -175 341 -7 22
-18 45 -24 50 -7 6 -13 17 -13 25 0 19 -22 126 -33 165 -5 17 -12 54 -15 84
-4 30 -8 61 -10 71 -16 81 -23 291 -14 375 4 33 10 92 13 130 4 39 11 97 16
130 5 33 11 82 15 109 3 27 8 52 9 55 2 3 7 26 10 51 19 146 87 344 187 547
85 172 162 296 235 379 78 89 224 231 270 261 21 15 52 37 67 49 40 33 156 86
268 123 151 48 546 161 587 167 20 3 43 7 50 9 55 19 456 26 672 12 222 -15
245 -16 300 -23 30 -3 71 -8 90 -10 138 -13 357 -40 485 -59 363 -55 491 -98
748 -249 l47 -28 0 30 c0 17 5 34 10 37 17 10 130 -109 263 -277 34 -43 65
-78 69 -78 4 0 8 -10 8 -22 0 -67 119 -226 159 -213 14 4 25 -3 40 -24 12 -16
21 -36 21 -44 0 -27 57 -237 68 -250 6 -7 23 -14 38 -15 36 -3 42 -9 50 -57 3
-22 10 -47 15 -55 10 -17 10 -17 14 65 2 28 3 56 4 63 1 9 7 8 26 -4 54 -35
164 9 205 84 81 144 73 135 151 162 l73 25 23 59 c19 50 38 80 100 161 40 52
179 195 189 195 16 0 64 80 68 113 1 14 10 32 18 41 10 9 15 29 14 48 -2 18
10 70 26 115 15 46 28 91 28 102 0 10 6 34 14 52 20 48 26 105 12 119 -8 8 -7
14 7 21 9 6 17 20 17 31 0 21 -2 20 -32 -8 -18 -17 -29 -22 -25 -13 3 9 13 48
23 85 9 38 30 97 45 131 33 71 34 73 15 73 -23 0 -27 15 -12 50 13 31 11 70
-3 70 -4 0 -13 -6 -20 -12 -11 -11 -11 -9 -2 10 6 12 18 22 26 22 19 0 19 14
0 30 -9 7 -14 19 -11 27 8 19 -11 16 -23 -4 -8 -14 -14 -16 -28 -7 -13 8 -18
24 -18 61 -1 34 -8 58 -23 80 -12 17 -22 36 -22 42 0 17 -21 13 -39 -6 -9 -10
-32 -31 -50 -48 -27 -24 -32 -26 -26 -10 4 11 8 26 8 32 0 7 17 32 38 55 21
24 39 49 39 56 0 14 -28 16 -49 3 -9 -6 -19 -4 -28 5 -8 8 -19 12 -24 9 -11
-7 -12 -25 -1 -24 19 3 23 -2 12 -16 -21 -25 -30 -17 -30 24 0 34 4 41 28 49
15 6 21 11 15 11 -7 1 -13 7 -13 15 0 16 69 125 104 166 12 14 30 43 40 64
l17 39 -28 -18 c-15 -10 -43 -34 -63 -52 -19 -19 -47 -37 -62 -40 -16 -3 -31
-10 -34 -14 -3 -5 -16 -9 -30 -9 -13 0 -24 -5 -24 -11 0 -5 6 -7 13 -3 8 5 8
2 -2 -9 -16 -20 -71 -23 -104 -5 -12 6 -29 14 -37 18 -8 3 -24 25 -36 49 l-20
42 -19 -21 c-16 -18 -17 -20 -2 -14 10 3 17 1 17 -5 0 -23 -31 -24 -46 -2 -17
24 -44 28 -44 7 0 -7 -8 -16 -18 -19 -12 -2 -22 -18 -26 -38 l-7 -34 -18 39
c-17 36 -19 37 -26 17 -12 -39 -30 -17 -31 39 -1 76 12 133 47 202 13 26 11
31 -11 25 -25 -7 -34 7 -20 33 18 33 -17 13 -39 -24 -11 -17 -32 -43 -47 -56
l-27 -25 7 27 c3 15 17 38 31 52 37 37 31 55 -7 20 l-31 -29 20 40 c11 22 25
56 31 75 10 32 10 33 -3 16 -8 -11 -23 -21 -32 -22 -20 -3 -41 -28 -55 -66
-14 -40 -25 -34 -20 9 4 35 4 37 -13 23 -17 -14 -17 -13 -10 9 4 14 16 38 26
55 11 17 19 34 19 39 0 13 -28 7 -34 -8 -9 -23 -25 -18 -37 13 -10 26 -11 26
-25 8 -8 -11 -14 -25 -14 -31 0 -7 -8 -20 -19 -29 -10 -9 -26 -37 -36 -61 -18
-50 -35 -59 -35 -20 0 33 -22 32 -55 -1 l-26 -26 7 29 7 28 -40 -38 c-35 -33
-43 -37 -65 -28 -14 5 -28 7 -31 4 -4 -3 -13 2 -22 11 -9 9 -23 16 -30 16 -8
0 -24 14 -36 32 l-23 32 -6 -24 -6 -25 -17 32 c-9 17 -30 38 -46 46 -27 14
-30 13 -35 -6 l-5 -21 -24 22 c-24 23 -24 23 -30 3 -3 -12 -1 -24 5 -27 6 -4
5 -10 -3 -15 -7 -4 -16 -6 -20 -3 -9 5 -2 112 11 168 7 34 6 42 -10 53 -23 16
-54 114 -47 149 2 14 -1 24 -7 24 -14 0 -32 -42 -41 -95 -10 -64 -15 -75 -34
-75 -10 0 -25 8 -32 17 -10 11 -10 14 -1 9 22 -13 31 3 17 30 -9 17 -10 36 -4
62 5 20 9 53 9 72 0 20 5 41 11 47 8 8 8 13 0 18 -6 3 -18 -1 -27 -9 -28 -29
-61 -18 -55 17 1 5 -4 5 -10 2 -16 -10 -49 -86 -49 -114 0 -18 -3 -21 -13 -12
-19 15 -27 4 -27 -34 0 -18 -15 -56 -35 -90 -20 -32 -36 -69 -37 -81 -1 -13
-9 -32 -18 -44 -15 -20 -15 -20 -60 10 -25 17 -58 30 -76 30 -16 0 -35 5 -42
12 -6 6 -14 9 -18 6 -3 -4 11 -21 31 -40 l36 -33 -47 1 c-32 1 -50 7 -56 18
-11 20 -14 119 -4 164 8 34 -3 42 -24 17 -7 -8 -23 -43 -36 -78 l-23 -62 0 43
c-1 39 -2 42 -17 28 -8 -9 -19 -16 -23 -16 -12 0 0 51 17 78 8 13 10 22 4 22
-6 0 -14 -4 -17 -10 -16 -26 -25 -6 -20 41 3 30 1 56 -5 64 -6 7 -9 39 -7 71
4 70 -10 136 -24 113 -5 -8 -9 -40 -9 -72 0 -50 -20 -127 -34 -127 -2 0 -2 14
0 30 3 17 1 30 -4 30 -13 0 -22 -25 -17 -49 2 -11 -3 -22 -12 -25 -10 -4 -14
-15 -10 -32 3 -16 0 -24 -7 -21 -20 8 -45 -18 -66 -66 -20 -46 -42 -61 -94
-66 -8 0 -16 -11 -18 -23 -3 -20 -8 -22 -38 -20 -19 2 -51 11 -70 19 -39 18
-72 18 -101 2 -18 -9 -19 -13 -6 -27 8 -9 17 -25 20 -34 4 -12 14 -15 31 -12
38 7 40 -12 2 -34 l-33 -20 -34 33 c-19 17 -45 37 -58 44 -37 20 -59 85 -67
196 -5 87 -10 141 -13 154 -1 2 -8 -2 -16 -9 -13 -11 -16 -8 -21 19 -8 38 -20
32 -28 -14 -8 -39 -26 -57 -26 -24 0 17 -4 20 -21 16 -18 -5 -20 -2 -14 20 5
21 3 24 -11 19 -14 -5 -16 -1 -11 27 3 19 1 40 -4 48 -8 12 -10 12 -8 -1 1 -8
-6 -33 -15 -55 -12 -26 -14 -41 -7 -43 15 -5 14 -37 -2 -51 -20 -16 -26 -4
-20 35 4 22 2 34 -6 34 -6 0 -11 -6 -11 -14 0 -8 -4 -17 -9 -20 -4 -3 -8 2 -8
12 0 44 -4 62 -13 62 -5 0 -10 -10 -10 -21 0 -16 -3 -19 -13 -11 -7 6 -22 10
-32 8 -18 -3 -20 -11 -20 -107 0 -87 2 -103 15 -101 10 2 8 -4 -7 -20 -22 -21
-24 -21 -40 -5 -15 14 -16 21 -5 37 10 16 10 20 -2 20 -14 0 -68 -75 -101
-140 -23 -45 -45 -70 -62 -70 -17 0 -43 -24 -43 -40 0 -17 -58 17 -77 47 l-17
26 -6 -24 c-6 -23 -7 -22 -27 16 -12 22 -31 78 -44 124 -17 62 -29 87 -47 99
-29 19 -82 125 -82 164 0 24 -15 46 -25 36 -2 -2 2 -27 9 -56 14 -53 9 -70 -9
-29 -6 12 -14 22 -20 22 -17 0 -17 -62 0 -96 25 -47 5 -56 -37 -15 -22 21 -39
49 -44 73 -10 50 -11 55 -13 74 0 8 -8 24 -16 35 -14 19 -14 18 -9 -2 7 -25
-23 -42 -32 -19 -4 8 -10 12 -15 9 -5 -3 -7 -10 -4 -15 4 -5 2 -9 -3 -9 -4 0
-16 15 -25 33 -15 31 -16 31 -17 7z m-2105 -2100 c3 -5 1 -10 -4 -10 -6 0 -11
5 -11 10 0 6 2 10 4 10 3 0 8 -4 11 -10z m-108 -4037 c-3 -10 -5 -2 -5 17 0
19 2 27 5 18 2 -10 2 -26 0 -35z"/>
</g>
</svg>
