<?xml version="1.0" encoding="utf-8"?>
<svg version="1.1" xmlns="http://www.w3.org/2000/svg" xmlns:xlink="http://www.w3.org/1999/xlink">

<symbol id="facebook" viewBox="0 0 18 18">
    <title>Facebook</title> 
    <desc>Facebook Logo</desc>
    <path d="M10.5,18V9.8h3l0.4-3.2h-3.4v-2c0-0.9,0.3-1.6,1.7-1.6H14V0.1C13.1,0,12.2,0,11.3,0C8.7,0,6.9,1.5,6.9,4.2v2.4
	H4v3.2h3V18H10.5L10.5,18z"/>
</symbol>

<symbol id="linkedin" viewBox="0 0 17 17.1">
    <title>LinkedIn</title> 
    <desc>LinkedIn Logo</desc>
    <path d="M3.7,16.3H0.4V5.7h3.3V16.3z M2,4.4L2,4.4C1,4.5,0.1,3.7,0,2.7c0-0.1,0-0.1,0-0.2c0-1,0.8-1.9,1.9-1.8c0,0,0.1,0,0.1,0
	c1-0.1,1.9,0.6,2,1.6c0.1,1-0.6,1.9-1.6,2C2.3,4.4,2.1,4.4,2,4.4z M17,16.3h-3.8v-5.5c0-1.4-0.6-2.4-1.9-2.4c-0.8,0-1.5,0.5-1.8,1.3
	c-0.1,0.3-0.1,0.6-0.1,0.9v5.7H5.8c0,0,0-9.7,0-10.6h3.7v1.7c0.7-1.2,2-1.9,3.3-1.8c2.4,0,4.2,1.5,4.2,4.8V16.3z"/>
</symbol>

<symbol id="twitter" viewBox="0 0 17.2 17.2">
    <title>Twitter</title> 
    <desc>Twitter Logo</desc>
    <path d="M17.2,3.3L17.2,3.3 M11.9,1.6c-2,0-3.5,1.6-3.5,3.5c0,0.3,0,0.5,0.1,0.8C5.6,5.8,3,4.5,1.2,2.3C0.3,3.9,0.7,6,2.3,7
	C1.7,7,1.2,6.8,0.7,6.6c0,0,0,0,0,0c0,1.7,1.2,3.1,2.8,3.5c-0.3,0.1-0.6,0.1-0.9,0.1c-0.2,0-0.4,0-0.7-0.1c0.5,1.4,1.8,2.4,3.3,2.5
	c-1.3,1-2.8,1.5-4.4,1.5c-0.3,0-0.6,0-0.8,0c4.7,3,10.9,1.6,13.9-3c1-1.6,1.6-3.5,1.6-5.4c0-0.2,0-0.3,0-0.5
	c0.7-0.5,1.3-1.1,1.8-1.8c-0.6,0.3-1.3,0.5-2,0.6c0.7-0.4,1.3-1.1,1.6-2c-0.7,0.4-1.5,0.7-2.2,0.9C13.8,2,12.9,1.6,11.9,1.6"/>
</symbol>

<symbol id="pinterest" viewBox="0 0 40 40">
    <title>Pinterest</title> 
    <desc>Pinterest Logo</desc>
    <path d="M19.934 0C8.918 0 .016 8.918.016 19.918c0 8.443 5.246 15.656 12.656 18.557-.18-1.573-.328-4 .066-5.72.36-1.558 2.328-9.903 2.328-9.903s-.59-1.196-.59-2.95c0-2.77 1.606-4.836 3.606-4.836 1.705 0 2.525 1.278 2.525 2.803 0 1.705-1.082 4.262-1.656 6.64-.476 1.983 1 3.606 2.95 3.606 3.542 0 6.263-3.738 6.263-9.115 0-4.77-3.426-8.098-8.328-8.098-5.672 0-9 4.246-9 8.639 0 1.705.656 3.541 1.475 4.541.164.197.18.377.132.574-.148.623-.492 1.983-.558 2.262-.082.36-.295.443-.672.262-2.459-1.18-4-4.82-4-7.737 0-6.28 4.557-12.05 13.164-12.05 6.902 0 12.279 4.918 12.279 11.509 0 6.868-4.328 12.393-10.328 12.393-2.017 0-3.918-1.05-4.558-2.295l-1.245 4.738c-.443 1.737-1.656 3.901-2.476 5.23 1.869.573 3.836.884 5.902.884 11 0 19.918-8.918 19.918-19.918C39.852 8.918 30.934 0 19.934 0z"></path>
</symbol>

</svg>
